<svg width="16" height="14" viewBox="0 0 16 14" fill="none" xmlns="http://www.w3.org/2000/svg">
<path d="M5.64 12C8.75489 12 11.28 9.31371 11.28 6C11.28 2.68629 8.75489 0 5.64 0C2.52511 0 0 2.68629 0 6C0 9.31371 2.52511 12 5.64 12Z" fill="#FF3838"/>
<path d="M10.36 14C13.4749 14 16 11.3137 16 8C16 4.68629 13.4749 2 10.36 2C7.24508 2 4.71997 4.68629 4.71997 8C4.71997 11.3137 7.24508 14 10.36 14Z" fill="#FF3838"/>
<path d="M10.36 13C12.9226 13 15 10.7614 15 8C15 5.23858 12.9226 3 10.36 3C7.79737 3 5.71997 5.23858 5.71997 8C5.71997 10.7614 7.79737 13 10.36 13Z" stroke="#151211" stroke-width="2" stroke-linejoin="round"/>
</svg>
