<svg width="24" height="18" viewBox="0 0 24 18" fill="none" xmlns="http://www.w3.org/2000/svg">
<path d="M22.6488 5.72988C22.8293 5.59453 23.1 5.72988 23.1 5.95547V15.1594C23.1 16.3775 22.1074 17.325 20.9344 17.325H2.16563C0.947461 17.325 0 16.3775 0 15.1594V5.95547C0 5.72988 0.225586 5.59453 0.406055 5.72988C1.44375 6.54199 2.75215 7.53457 7.3541 10.8732C8.30156 11.55 9.92578 13.0389 11.55 13.0389C13.1291 13.0389 14.7984 11.55 15.7008 10.8732C20.3027 7.53457 21.6111 6.54199 22.6488 5.72988ZM11.55 11.55C10.4672 11.5951 8.97832 10.2416 8.21133 9.70019C2.21074 5.36894 1.75957 4.96289 0.406055 3.88007C0.135352 3.69961 0 3.38379 0 3.02285V2.16562C0 0.992575 0.947461 -3.33786e-06 2.16563 -3.33786e-06H20.9344C22.1074 -3.33786e-06 23.1 0.992575 23.1 2.16562V3.02285C23.1 3.38379 22.9195 3.69961 22.6488 3.88007C21.2953 4.96289 20.8441 5.36894 14.8436 9.70019C14.0766 10.2416 12.5877 11.5951 11.55 11.55Z" fill="#181818"/>
</svg>
