<svg width="18" height="24" viewBox="0 0 18 24" fill="none" xmlns="http://www.w3.org/2000/svg">
<path d="M7.76016 22.6488C1.17305 13.1742 0 12.1816 0 8.6625C0 3.88008 3.83496 1.19209e-06 8.6625 1.19209e-06C13.4449 1.19209e-06 17.325 3.88008 17.325 8.6625C17.325 12.1816 16.1068 13.1742 9.51973 22.6488C9.11367 23.2805 8.16621 23.2805 7.76016 22.6488ZM8.6625 12.2719C10.6477 12.2719 12.2719 10.6928 12.2719 8.6625C12.2719 6.67735 10.6477 5.05313 8.6625 5.05313C6.63223 5.05313 5.05313 6.67735 5.05313 8.6625C5.05313 10.6928 6.63223 12.2719 8.6625 12.2719Z" fill="#181818"/>
</svg>
