<svg width="26" height="26" viewBox="0 0 26 26" fill="none" xmlns="http://www.w3.org/2000/svg">
<path d="M21.9521 24.5284C21.7653 25.008 21.3234 25.3245 20.8296 25.2724C9.29243 24.0549 0.985224 13.7368 2.19797 2.24458C2.25482 1.70588 2.6117 1.33502 3.11972 1.25245L7.90214 0.667734C8.40542 0.630061 8.92044 0.911367 9.09278 1.42886L10.717 6.68411C10.8492 7.15198 10.6624 7.63157 10.2701 7.90792L7.29486 9.86352C8.58634 13.5403 11.161 16.6717 14.4022 18.6478L16.9357 16.1463C17.2879 15.8203 17.7959 15.7378 18.2259 15.9647L23.0263 18.6501C23.4964 18.9267 23.7089 19.4938 23.5222 19.9734L21.9521 24.5284Z" fill="#181818"/>
</svg>
